<?xml version="1.0" encoding="UTF-8"?> <svg xmlns="http://www.w3.org/2000/svg" width="146" height="44" viewBox="0 0 146 44" fill="none"> <path d="M34.4689 0H12.394V4.20473H34.4689V0Z" fill="#808080"></path> <path d="M16.5982 10.533H0V14.7377H16.5982V10.533Z" fill="#808080"></path> <path d="M144.905 25.0814C143.192 19.8885 138.062 16.1674 131.818 15.5682L118.237 13.0348L87.1114 0.988281L64.5004 1.13545L20.6031 13.8968L19.0578 21.0659L18.1643 25.2391L18.1538 25.2706H22.4531L22.4637 25.2391L23.3677 21.0659L23.9143 18.5325L35.1514 23.4836C33.2698 25.5229 32.082 28.2034 31.9558 31.1572L27.7932 29.4438H17.2603L17.2183 29.6435L32.7442 36.0242C34.4997 40.5863 38.9252 43.8345 44.097 43.8345C50.793 43.8345 56.2381 38.3893 56.2381 31.6933C56.2381 24.9868 50.793 19.5416 44.097 19.5416C42.31 19.5416 40.6176 19.9306 39.0934 20.6244L28.5395 15.9781L49.5001 9.88128H49.5106L62.0512 14.1701L69.6828 31.3254H59.0343V35.5301H107.778C109.386 40.3551 113.948 43.8345 119.299 43.8345C124.66 43.8345 129.211 40.3551 130.83 35.5301H142.656L145.095 25.649L144.905 25.0814ZM44.097 23.7464C48.4699 23.7464 52.0334 27.3099 52.0334 31.6933C52.0334 36.0662 48.4699 39.6297 44.097 39.6297C39.7136 39.6297 36.15 36.0662 36.15 31.6933C36.15 27.3099 39.7136 23.7464 44.097 23.7464ZM75.0228 5.2771L86.344 5.20352L104.782 12.3411L75.0228 10.9114V5.2771ZM56.5325 7.83148L65.1101 5.34018L70.8181 5.30864V10.7117L63.9959 10.3859L56.5325 7.83148ZM119.299 39.6297C114.926 39.6297 111.362 36.0662 111.362 31.6933C111.362 27.3099 114.926 23.7464 119.299 23.7464C123.682 23.7464 127.246 27.3099 127.246 31.6933C127.246 36.0662 123.682 39.6297 119.299 39.6297ZM139.366 31.3254H131.44C131.251 24.7871 125.879 19.5416 119.299 19.5416C112.729 19.5416 107.357 24.7871 107.168 31.3254H74.287L66.9077 14.7377L117.564 17.166V17.1555L131.145 19.7204L131.335 19.7519C135.655 20.1408 139.345 22.5691 140.711 25.8593L139.366 31.3254Z" fill="#BDBDBD"></path> <path d="M44.0961 34.0795C45.414 34.0795 46.4823 33.0112 46.4823 31.6933C46.4823 30.3755 45.414 29.3071 44.0961 29.3071C42.7783 29.3071 41.71 30.3755 41.71 31.6933C41.71 33.0112 42.7783 34.0795 44.0961 34.0795Z" fill="#BDBDBD"></path> <path d="M119.298 34.0795C120.616 34.0795 121.684 33.0112 121.684 31.6933C121.684 30.3755 120.616 29.3071 119.298 29.3071C117.98 29.3071 116.912 30.3755 116.912 31.6933C116.912 33.0112 117.98 34.0795 119.298 34.0795Z" fill="#BDBDBD"></path> <path d="M103.678 25.2709H79.7848L78.0503 21.0662H103.678V25.2709Z" fill="#BDBDBD"></path> <path d="M26.9208 21.0657H4.85645V25.2704H26.9208V21.0657Z" fill="#808080"></path> </svg> 